<svg xmlns="http://www.w3.org/2000/svg" data-name="Layer 1" viewBox="0 0 128 128" id="paper"><circle cx="104" cy="34" r="2"></circle><circle cx="104" cy="46" r="2"></circle><circle cx="104" cy="58" r="2"></circle><circle cx="104" cy="70" r="2"></circle><circle cx="104" cy="82" r="2"></circle><circle cx="104" cy="94" r="2"></circle><circle cx="104" cy="106" r="2"></circle><circle cx="104" cy="118" r="2"></circle><circle cx="24" cy="46" r="2"></circle><circle cx="24" cy="58" r="2"></circle><circle cx="24" cy="70" r="2"></circle><circle cx="24" cy="82" r="2"></circle><circle cx="24" cy="94" r="2"></circle><circle cx="24" cy="106" r="2"></circle><circle cx="24" cy="118" r="2"></circle><circle cx="24" cy="10" r="2"></circle><circle cx="24" cy="22" r="2"></circle><circle cx="24" cy="34" r="2"></circle><path d="M113.41406,25.58594l-1-1-24-24A2.0388,2.0388,0,0,0,87,0H17a3.00328,3.00328,0,0,0-3,3V125a3.00328,3.00328,0,0,0,3,3h94a3.00328,3.00328,0,0,0,3-3V27A2.00025,2.00025,0,0,0,113.41406,25.58594ZM89,6.82855,106.17139,24H89ZM110,124H18V4H85V25.04395A2.95962,2.95962,0,0,0,87.95654,28H110Z"></path></svg>