<svg xmlns="http://www.w3.org/2000/svg" data-name="Layer 2" viewBox="0 0 64 64" id="rock"><path d="m60.38 32.075-16.46-6.778-1.928-15.421A1 1 0 0 0 41 9H12a1 1 0 0 0-.994.89l-.977 8.79-6.893 11.816A1.003 1.003 0 0 0 3 31v19a1 1 0 0 0 .713.958l20 6A1.01 1.01 0 0 0 24 57a.991.991 0 0 0 .19-.019l36-7A1 1 0 0 0 61 49V33a1 1 0 0 0-.62-.925ZM59 47.691l-20.737-5.656A.988.988 0 0 0 38 42H25.047l.909-20h8.757l7.757 4.848c.023.014.048.02.072.032.026.014.05.033.077.045L59 33.67ZM41.747 24.037l-6.217-3.885A1.003 1.003 0 0 0 35 20h-9.638l-10.8-9h25.555Zm-29.883-4.533a1.005 1.005 0 0 0 .13-.394l.778-6.998L23.98 21.45l-.946 20.795L5 47.656V31.27ZM24.051 54.97 5.814 49.5 24.147 44h13.72L55.6 48.837Z"></path><path d="M36 27h-4a1 1 0 0 0 0 2h4a1 1 0 0 0 0-2zm-20.8 6.6a1 1 0 0 0 1.4.2l4-3a1 1 0 1 0-1.2-1.6l-4 3a.999.999 0 0 0-.2 1.4zm12.604 15.42-5 1a1 1 0 0 0 .195 1.98 1.014 1.014 0 0 0 .197-.02l5-1a1 1 0 0 0-.392-1.961zM29 15h3a1 1 0 0 0 0-2h-3a1 1 0 0 0 0 2zm24.447 26.895 2-1a1 1 0 1 0-.894-1.79l-2 1a1 1 0 0 0 .894 1.79zM8 43a1 1 0 0 0 1-1v-3a1 1 0 0 0-2 0v3a1 1 0 0 0 1 1zm7.553-21.105 2 1a1 1 0 0 0 .894-1.79l-2-1a1 1 0 0 0-.894 1.79zM40 36h-2a1 1 0 0 0 0 2h2a1 1 0 0 0 0-2zm1.242 11.03-4-1a1 1 0 0 0-.484 1.94l4 1a1 1 0 0 0 .484-1.94z"></path></svg>