<svg xmlns="http://www.w3.org/2000/svg" id="scissor" x="0" y="0" enable-background="new 0 0 32 32" version="1.1" viewBox="0 0 32 32" xml:space="preserve"><path id="path7" fill="#000" stroke="none" d="M24.02 2.287a2.75 2.75 0 0 0-2.508 1.326l-4.18 6.95c-.007.011-.008.027-.014.039l-3.402.937a.5.5 0 0 0-.572-.266l-2.403.665a3.763 3.763 0 0 0-.101-.49A4.465 4.465 0 0 0 8.725 8.73a4.485 4.485 0 0 0-3.42-.425 4.507 4.507 0 0 0-3.143 5.535 4.51 4.51 0 0 0 4.34 3.305c.396 0 .797-.054 1.195-.163l6.71-1.851a.501.501 0 0 0 .349-.615l-.004-.01c.271.017.521.121.744.273.388.322.59.797.543 1.284l-.01-.006a.495.495 0 0 0-.66.25l-2.869 6.34A4.502 4.502 0 0 0 16.592 29a4.504 4.504 0 0 0 4.105-2.645 4.503 4.503 0 0 0-2.242-5.953 3.815 3.815 0 0 0-.47-.177l1.027-2.27a.498.498 0 0 0 .013-.383.494.494 0 0 0-.187-.226l1.414-3.125c.014-.03.013-.063.021-.094l7.623-3.094h.002a2.747 2.747 0 0 0 1.616-3.275.498.498 0 0 0-.235-.301.512.512 0 0 0-.38-.049L22.544 9.16l2.703-5.97A.495.495 0 0 0 25 2.527a2.756 2.756 0 0 0-.98-.24zm.082 1.012L21.29 9.506l-2.586.713 3.664-6.09a1.756 1.756 0 0 1 1.733-.83zm4.511 5.228a1.752 1.752 0 0 1-1.09 1.582L16.67 14.512a2.426 2.426 0 0 0-.54-.518c-.054-.045-.104-.092-.163-.133-.031-.02-.068-.03-.102-.043a2.479 2.479 0 0 0-1.37-.314l-.278-1.008 14.396-3.969zM6.5 9.143a3.507 3.507 0 0 1 3.375 2.57c.071.257.106.535.111.875a.5.5 0 0 0 .633.477l2.508-.692.531 1.928-6.224 1.715a3.503 3.503 0 0 1-4.307-2.442 3.473 3.473 0 0 1 .33-2.658A3.481 3.481 0 0 1 5.57 9.27c.31-.086.624-.127.93-.127zm-.197 1.011a2.483 2.483 0 0 0-1.994 1.26 2.485 2.485 0 0 0-.237 1.9 2.506 2.506 0 0 0 3.074 1.747 2.507 2.507 0 0 0 1.747-3.077 2.482 2.482 0 0 0-1.178-1.51 2.481 2.481 0 0 0-1.412-.32zm.181.992c.256 0 .508.066.737.196a1.5 1.5 0 1 1-.736-.195zm11.592 1.08a.5.5 0 0 0-.361.147.5.5 0 0 0 0 .707.5.5 0 0 0 .707 0 .5.5 0 0 0 0-.707.5.5 0 0 0-.346-.146zm.881 2.438-1.014 2.238-.95-.431c.076-.34.075-.682.013-1.014l1.951-.793zm-2.885 2.51 1.823.824-1.07 2.37a.498.498 0 0 0 .37.697c.333.058.602.138.846.248a3.507 3.507 0 0 1 1.746 4.632 3.507 3.507 0 0 1-4.633 1.744 3.506 3.506 0 0 1-1.744-4.632l2.662-5.883zm.6 4.846c-.324-.011-.65.042-.963.16a2.483 2.483 0 0 0-1.396 1.31 2.482 2.482 0 0 0-.063 1.912c.235.625.7 1.12 1.309 1.395.329.149.679.226 1.029.226.298 0 .596-.054.883-.162a2.483 2.483 0 0 0 1.396-1.31 2.482 2.482 0 0 0 .063-1.912 2.476 2.476 0 0 0-1.309-1.395 2.491 2.491 0 0 0-.95-.224zm-.082 1c.21 0 .421.045.619.134.366.166.644.463.785.838.142.375.128.782-.037 1.147a1.5 1.5 0 1 1-1.367-2.12z"></path></svg>